
<svg width="208px" height="25px" viewBox="0 0 208 25" version="1.1" xmlns="http://www.w3.org/2000/svg" xmlns:xlink="http://www.w3.org/1999/xlink">
    <!-- Generator: Sketch 44.1 (41455) - http://www.bohemiancoding.com/sketch -->
    <desc>Created with Sketch.</desc>
    <defs></defs>
    <g id="Page-1" stroke="none" stroke-width="1" fill="none" fill-rule="evenodd">
        <g id="Group" transform="translate(2.000000, 2.000000)">
            <path d="M4.24076761,9.31854867 C1.90834543,9.31854867 0,8.22936766 0,6.89814642 L0,2.42040225 C0,1.08918101 1.90834543,0 4.24076761,0 L199.316078,0 C201.6485,0 203.556845,1.08918101 203.556845,2.42040225 L203.556845,6.89814642 C203.556845,8.22936766 201.6485,9.31854867 199.316078,9.31854867 L4.24076761,9.31854867 Z" id="Shape-Copy-11" stroke="#000000" stroke-width="3" fill="#ACB3BA"></path>
            <g id="Group-15" transform="translate(5.000000, 2.000000)">
                <g id="Group-12" transform="translate(16.000000, 0.000000)">
                    <ellipse id="Oval-Copy-36" fill="#000000" cx="8.42338651" cy="10.1656895" rx="8.42338651" ry="10.1656895"></ellipse>
                    <ellipse id="Oval-Copy-35" fill="#ACB3BA" cx="8.21447736" cy="10.2930459" rx="5.21447736" ry="6.29304586"></ellipse>
                </g>
                <g id="Group-11" transform="translate(179.000000, 0.000000)">
                    <ellipse id="Oval-Copy-34" fill="#000000" cx="8.42338651" cy="10.1656895" rx="8.42338651" ry="10.1656895"></ellipse>
                    <ellipse id="Oval-Copy-33" fill="#ACB3BA" cx="8.21447736" cy="10.2930459" rx="5.21447736" ry="6.29304586"></ellipse>
                </g>
                <g id="Group-10" transform="translate(163.000000, 0.000000)">
                    <ellipse id="Oval-Copy-32" fill="#000000" cx="8.42338651" cy="10.1656895" rx="8.42338651" ry="10.1656895"></ellipse>
                    <ellipse id="Oval-Copy-31" fill="#ACB3BA" cx="8.21447736" cy="10.2930459" rx="5.21447736" ry="6.29304586"></ellipse>
                </g>
                <g id="Group-13">
                    <ellipse id="Oval-Copy-30" fill="#000000" cx="8.42338651" cy="10.1656895" rx="8.42338651" ry="10.1656895"></ellipse>
                    <ellipse id="Oval-Copy-29" fill="#ACB3BA" cx="8.21447736" cy="10.2930459" rx="5.21447736" ry="6.29304586"></ellipse>
                </g>
            </g>
        </g>
    </g>
</svg>