
<svg width="233px" height="192px" viewBox="0 0 233 192" version="1.1" xmlns="http://www.w3.org/2000/svg" xmlns:xlink="http://www.w3.org/1999/xlink">
    <!-- Generator: Sketch 44 (41411) - http://www.bohemiancoding.com/sketch -->
    <desc>Created with Sketch.</desc>
    <defs></defs>
    <g id="Page-1" stroke="none" stroke-width="1" fill="none" fill-rule="evenodd">
        <g id="Group-3" transform="translate(-1.000000, 0.000000)">
            <g id="train" transform="translate(117.274859, 96.105122) scale(-1, 1) translate(-117.274859, -96.105122) translate(0.774859, 0.105122)">
                <g id="Layer_1">
                    <g id="Group" transform="translate(4.537108, 4.971148)">
                        <rect id="Rectangle-path" fill="#FFE67B" x="157.892704" y="28.799219" width="29.0370347" height="28.92169"></rect>
                        <path d="M157.894065,57.720909 L121.29095,57.720909 L121.29095,9.30598998 C121.29095,4.23406275 117.125432,0.0854133696 112.032528,0.0854133696 L24.0784298,0.0854133696 C18.986434,0.0854133696 14.8213693,4.23361083 14.8213693,9.30598998 L14.8213693,115.775789 L21.1438287,115.775789 C28.7752436,103.300014 42.5621523,94.9701766 58.300471,94.9701766 C74.0401509,94.9701766 87.8256985,103.300014 95.456206,115.775789 L208.404776,115.775789 L208.404776,96.4244635 L208.404776,77.0726862 L208.404776,61.9314718 C208.404776,59.6171762 206.501914,57.720909 204.177553,57.720909 L186.930646,57.720909 L157.894065,57.720909 L157.894065,57.720909 L157.894065,57.720909 Z M92.2539155,72.392124 L43.8574965,72.392124 L43.8574965,24.1855413 L92.2539155,24.1855413 L92.2539155,72.392124 L92.2539155,72.392124 Z" id="Shape" fill="#F9EACD"></path>
                        <rect id="Rectangle-path" fill="#9FDEE2" x="43.8565891" y="24.1859932" width="48.3982338" height="48.2074866"></rect>
                        <path d="M21.1442824,115.776241 L14.8213693,115.776241 L9.98163664,115.776241 C4.65779462,115.776241 0.303078785,120.114698 0.303078785,125.418913 C0.303078785,130.720869 4.65779462,135.059326 9.98163664,135.059326 L14.9406952,135.059326 C15.4583792,128.033285 17.6588763,121.471821 21.1442824,115.776241 L21.1442824,115.776241 Z" id="Shape" fill="#7BA9D6"></path>
                        <path d="M58.300471,155.036112 C49.0093822,155.036112 41.4773299,147.533745 41.4773299,138.279274 C41.4773299,129.025707 49.0093822,121.522436 58.300471,121.522436 C67.5911062,121.522436 75.1227047,129.025255 75.1227047,138.279274 C75.1227047,147.534197 67.5911062,155.036112 58.300471,155.036112 L58.300471,155.036112 L58.300471,155.036112 Z M58.300471,94.9706285 C42.5612449,94.9706285 28.7747899,103.300466 21.1447361,115.776241 C17.6597838,121.471821 15.4574718,128.033285 14.9411489,135.059326 C14.8608421,136.122248 14.8222767,137.195112 14.8222767,138.277466 C14.8222767,162.19547 34.2887367,181.587016 58.3013785,181.587016 C76.3504461,181.587016 91.8301496,170.633768 98.406687,155.036112 C100.579508,149.881483 101.78048,144.218441 101.78048,138.277015 C101.78048,137.194208 101.7401,136.121796 101.660247,135.058874 C101.14347,128.033285 98.941612,121.471369 95.4575671,115.775789 C87.8256985,103.300918 74.0401509,94.9706285 58.300471,94.9706285 L58.300471,94.9706285 Z" id="Shape" fill="#FFA233"></path>
                        <ellipse id="Oval" fill="#FFE67B" cx="58.2986562" cy="138.278822" rx="16.8226874" ry="16.7563858"></ellipse>
                        <path d="M128.435987,128.484304 C135.161795,128.484304 141.304585,130.964907 145.994593,135.059326 L164.189756,135.057518 C168.879764,130.965811 175.023915,128.484304 181.748362,128.484304 C188.474624,128.484304 194.617414,130.964907 199.306968,135.059326 L213.243148,135.059326 C218.56699,135.059326 222.922613,130.720869 222.922613,125.416653 C222.922613,120.114698 218.56699,115.776241 213.243148,115.776241 L208.40523,115.776241 L95.456206,115.776241 C98.9402509,121.471821 101.142109,128.033285 101.658886,135.059326 L110.878288,135.059326 C115.568296,130.965359 121.71154,128.484304 128.435987,128.484304 L128.435987,128.484304 Z" id="Shape" fill="#7BA9D6"></path>
                        <g transform="translate(101.631209, 128.346016)" id="Shape" fill="#FFA233">
                            <path d="M44.3629303,6.71331008 C39.6729222,2.61934333 33.530586,0.138288313 26.8043241,0.138288313 C20.0794232,0.138288313 13.9357259,2.61889141 9.24753263,6.71331008 C3.6696126,11.5791606 0.148363417,18.7245087 0.148363417,26.6887405 C0.148363417,41.3545324 12.0827711,53.2414523 26.8047778,53.2414523 C41.5272381,53.2414523 53.4611921,41.3545324 53.4611921,26.6887405 C53.4611921,18.7249606 49.9399429,11.5791606 44.3629303,6.71331008 L44.3629303,6.71331008 Z"></path>
                            <path d="M62.5585465,6.71150239 C56.9824413,11.5796125 53.4611921,18.7249606 53.4611921,26.6882886 C53.4611921,41.3540805 65.3951461,53.2410004 80.1171527,53.2410004 C94.8405205,53.2410004 106.774021,41.3540805 106.774021,26.6882886 C106.774021,18.7245087 103.253225,11.5791606 97.675759,6.71285816 C92.9866583,2.61889141 86.8434147,0.13783639 80.1171527,0.13783639 C73.3922519,0.138288313 67.2481009,2.61934333 62.5585465,6.71150239 L62.5585465,6.71150239 Z"></path>
                        </g>
                    </g>
                    <g id="Group" fill="#000003">
                        <path d="M232.299907,130.388254 C232.299907,122.41408 225.787343,115.928087 217.782524,115.926731 L217.782524,66.9026203 C217.782524,61.9228852 213.715007,57.8713992 208.715568,57.8713992 L196.308848,57.8713992 L196.308848,38.4093529 C198.349639,37.8435458 199.848699,35.9829805 199.848699,33.7703675 C199.848699,31.1076396 197.681776,28.9497092 195.008966,28.9497092 L191.469115,28.9497092 L162.43208,28.9497092 L158.892683,28.9497092 C156.219419,28.9497092 154.05295,31.1080915 154.05295,33.7703675 C154.05295,35.9829805 155.55201,37.8435458 157.592348,38.4093529 L157.592348,57.8713992 L130.668698,57.8713992 L130.668698,14.2771385 C130.668698,6.53480066 124.34397,0.235903592 116.57009,0.235903592 L28.6155374,0.235903592 C20.842111,0.235903592 14.5187442,6.53480066 14.5187442,14.2771385 L14.5187442,115.926279 C6.51301791,115.926731 0,122.41408 0,130.390062 C0,138.364236 6.51301791,144.851584 14.5187442,144.851584 L14.5477817,144.851584 C15.3993968,170.651393 36.7324228,191.379727 62.8371249,191.379727 C79.6089967,191.379727 94.4104027,182.82212 103.078093,169.861432 C107.236806,182.346246 119.061416,191.379727 132.973095,191.379727 C144.189278,191.379727 154.048413,185.505185 159.629963,176.687723 C165.211059,185.505185 175.06974,191.379727 186.28547,191.379727 C203.653064,191.379727 217.782978,177.305501 217.782978,160.006357 C217.782978,154.513237 216.353789,149.34731 213.852028,144.852036 L217.780256,144.852036 C225.786889,144.851132 232.299907,138.364236 232.299907,130.388254 L232.299907,130.388254 Z M222.620442,130.390062 C222.620442,133.047366 220.44989,135.209816 217.780709,135.209816 L205.57952,135.209816 C203.442542,133.558039 201.110922,132.202723 198.650903,131.156522 C198.527493,131.104099 198.402269,131.053936 198.277952,131.00332 C197.973966,130.878138 197.669073,130.757475 197.36191,130.642686 C197.182695,130.575802 197.003933,130.511177 196.823356,130.447004 C196.565194,130.355715 196.306579,130.268042 196.045695,130.184437 C195.83835,130.116648 195.631911,130.04886 195.422751,129.986043 C195.179562,129.912831 194.935465,129.845947 194.690915,129.77861 C194.471319,129.717601 194.253084,129.653428 194.03122,129.597841 C193.605639,129.490284 193.177336,129.391313 192.747672,129.30138 C192.522178,129.255284 192.293508,129.216419 192.066652,129.173938 C191.818472,129.127842 191.570746,129.080842 191.321205,129.040169 C191.095257,129.004467 190.868402,128.973284 190.641547,128.942102 C190.377941,128.905496 190.11252,128.870698 189.846645,128.840419 C189.63567,128.816919 189.424241,128.794323 189.212358,128.775342 C188.903834,128.745967 188.596219,128.724727 188.286788,128.704842 C188.112109,128.693544 187.936977,128.680438 187.761391,128.671852 C187.270476,128.649256 186.780014,128.635246 186.286831,128.635246 C185.794101,128.635246 185.302732,128.649256 184.813178,128.671852 C184.636685,128.680438 184.462006,128.693544 184.28642,128.704842 C183.977443,128.724727 183.670281,128.746419 183.363119,128.775342 C183.150328,128.794323 182.937538,128.816919 182.726109,128.841323 C182.461595,128.870246 182.197989,128.905496 181.934837,128.941198 C181.707074,128.972832 181.478404,129.004467 181.251549,129.041073 C181.005638,129.08039 180.760634,129.126938 180.516991,129.171678 C180.285599,129.215063 180.054206,129.253476 179.825536,129.301832 C179.396779,129.391313 178.970291,129.48938 178.546979,129.596485 C178.319216,129.65388 178.094176,129.71986 177.868228,129.782226 C177.630937,129.848206 177.3941,129.912831 177.15817,129.983783 C176.943565,130.04886 176.731682,130.118456 176.519346,130.187148 C176.265268,130.26985 176.012097,130.354812 175.760288,130.444292 C175.574266,130.509369 175.389606,130.576706 175.205853,130.64585 C174.906404,130.757475 174.609223,130.876782 174.312497,130.997445 C174.18092,131.052128 174.048891,131.105003 173.917768,131.16059 C171.460017,132.20679 169.131573,133.561202 166.996411,135.211172 L152.269867,135.211172 C150.132889,133.56075 147.802631,132.204983 145.342611,131.158782 C145.216933,131.105455 145.089894,131.054388 144.963763,131.002417 C144.662045,130.879042 144.358966,130.758378 144.053165,130.644494 C143.873042,130.576706 143.692011,130.510725 143.510073,130.447004 C143.25418,130.356167 142.996473,130.270302 142.737858,130.186244 C142.529151,130.118456 142.320444,130.049764 142.109922,129.985591 C141.869455,129.913283 141.62672,129.847302 141.384438,129.780418 C141.163481,129.719408 140.942978,129.654332 140.718845,129.597841 C140.294171,129.490284 139.866776,129.392668 139.437112,129.303188 C139.210256,129.254832 138.981133,129.216419 138.752916,129.173938 C138.505644,129.127842 138.258825,129.081746 138.010645,129.042428 C137.785151,129.005823 137.556934,128.97464 137.330533,128.943457 C137.066473,128.906852 136.80196,128.872054 136.536539,128.842679 C136.325563,128.818275 136.113681,128.795227 135.90089,128.776698 C135.593728,128.747323 135.285205,128.726083 134.976681,128.706198 C134.801549,128.6949 134.62687,128.681794 134.450377,128.673208 C133.959916,128.650611 133.469454,128.636602 132.976271,128.636602 C132.483087,128.636602 131.992172,128.650611 131.502164,128.673208 C131.326578,128.681794 131.151446,128.6949 130.975406,128.706198 C130.666883,128.726083 130.359267,128.747775 130.052105,128.776698 C129.839315,128.795679 129.626978,128.818275 129.415549,128.842679 C129.150128,128.871602 128.886522,128.906852 128.622916,128.942553 C128.395607,128.974188 128.16739,129.005823 127.941442,129.042428 C127.694624,129.081746 127.448713,129.128294 127.202801,129.173938 C126.973224,129.216419 126.742739,129.254832 126.514522,129.303188 C126.085765,129.392668 125.658824,129.490736 125.234604,129.597841 C125.008202,129.655235 124.78543,129.720312 124.561297,129.782678 C124.321738,129.848658 124.082632,129.914187 123.843981,129.986043 C123.631644,130.050216 123.421122,130.118456 123.209693,130.1876 C122.954708,130.271658 122.699268,130.356167 122.446098,130.445648 C122.261891,130.511629 122.078138,130.578061 121.894839,130.646302 C121.593122,130.759282 121.29458,130.878138 120.996946,131.000157 C120.866277,131.053484 120.736062,131.105907 120.606301,131.160138 C118.148096,132.206338 115.818745,133.562106 113.683582,135.211624 L110.482653,135.211624 C110.47993,135.195806 110.476754,135.180893 110.474032,135.164172 C109.988108,132.318867 109.253096,129.556264 108.2876,126.903027 C108.265822,126.842921 108.245859,126.782363 108.22408,126.723162 C108.216367,126.702373 108.208201,126.682489 108.200487,126.663056 C108.066643,126.296547 107.927807,125.932297 107.784888,125.569855 L212.94506,125.569855 L217.782978,125.569855 C220.448982,125.568499 222.620442,127.730045 222.620442,130.390062 L222.620442,130.390062 Z M124.466925,139.996128 C124.531352,139.968561 124.597594,139.944609 124.662929,139.917945 C124.903395,139.818071 125.145677,139.722263 125.390227,139.631427 C125.533146,139.579004 125.677879,139.529744 125.822613,139.480484 C125.992755,139.421283 126.162896,139.362081 126.33576,139.307398 C126.508624,139.251812 126.682395,139.201648 126.856166,139.151033 C127.00453,139.107648 127.152893,139.064264 127.303525,139.023591 C127.488639,138.974331 127.674207,138.928687 127.860228,138.883495 C128.004962,138.848697 128.149696,138.815706 128.294883,138.78362 C128.483173,138.742043 128.671009,138.703629 128.860207,138.667928 C129.011746,138.639005 129.164193,138.612341 129.31664,138.58613 C129.499939,138.554947 129.683238,138.526024 129.866991,138.49936 C130.036225,138.474957 130.207274,138.454168 130.377415,138.434284 C130.54665,138.413495 130.715884,138.392707 130.886025,138.376889 C131.092464,138.357005 131.300717,138.342995 131.50897,138.329438 C131.645991,138.319947 131.783011,138.307745 131.920486,138.300966 C132.269843,138.284245 132.621015,138.274303 132.974002,138.274303 C133.326989,138.274303 133.678615,138.283793 134.027519,138.300966 C134.164539,138.307745 134.301106,138.319947 134.438127,138.329438 C134.647287,138.342543 134.855994,138.357005 135.062886,138.376889 C135.232121,138.392707 135.400901,138.413495 135.569681,138.434284 C135.74073,138.454168 135.911779,138.474957 136.082375,138.49936 C136.265674,138.526024 136.448065,138.554947 136.630911,138.58613 C136.783811,138.612793 136.937166,138.638553 137.089612,138.667928 C137.277902,138.703629 137.465285,138.742043 137.651306,138.782716 C137.798762,138.814351 137.944857,138.8496 138.090952,138.884399 C138.275612,138.928687 138.459819,138.973879 138.643118,139.023591 C138.795565,139.064264 138.946651,139.108552 139.097736,139.151937 C139.269239,139.201648 139.440288,139.251812 139.610429,139.306042 C139.786923,139.361629 139.962055,139.422638 140.136734,139.482744 C140.276023,139.532004 140.417127,139.577648 140.555509,139.628715 C140.808679,139.722715 141.058674,139.82259 141.308215,139.925176 C141.365383,139.948676 141.423004,139.969465 141.479718,139.99432 C147.854808,142.691846 152.680475,148.329129 154.245777,155.185698 L111.705857,155.185698 C113.26889,148.330936 118.092743,142.69501 124.466925,139.996128 L124.466925,139.996128 Z M167.270906,38.5910258 L186.628475,38.5910258 L186.628475,57.8709473 L167.270906,57.8709473 L167.270906,38.5910258 L167.270906,38.5910258 Z M24.1982095,14.2771385 C24.1982095,11.8507661 26.1795643,9.87722013 28.6155374,9.87722013 L116.569636,9.87722013 C119.006063,9.87722013 120.988325,11.8507661 120.988325,14.2771385 L120.988325,62.6920575 C120.988325,65.3534296 123.155248,67.5127158 125.828058,67.5127158 L162.431173,67.5127158 L191.468208,67.5127158 L208.102151,67.5127158 L208.102151,77.2231765 L191.386086,77.2231765 C188.712369,77.2231765 186.546353,79.3815588 186.546353,82.0438347 C186.546353,84.7052069 188.712822,86.864493 191.386086,86.864493 L208.102605,86.864493 L208.102605,96.5749537 L191.386086,96.5749537 C188.712369,96.5749537 186.546353,98.733336 186.546353,101.395612 C186.546353,104.056984 188.712822,106.21627 191.386086,106.21627 L208.102605,106.21627 L208.102605,115.926279 L102.622567,115.926279 C94.5360806,104.221032 81.9310884,96.8081458 67.8506287,95.3787146 C67.8102485,95.3746473 67.7707757,95.3701281 67.7313028,95.3665127 C67.4191498,95.335782 67.1065431,95.3082147 66.7934827,95.2838109 C66.62198,95.2698013 66.4500236,95.2562436 66.2780673,95.2444936 C66.0326097,95.2277725 65.7876059,95.2115032 65.5426021,95.1983975 C65.280811,95.183484 65.0176588,95.1726379 64.7540528,95.1626956 C64.573476,95.1559168 64.3928991,95.1468783 64.2123222,95.1419072 C63.7554355,95.1297053 63.2971876,95.1211187 62.8380323,95.1211187 C62.3906735,95.1211187 61.9446758,95.1288014 61.500493,95.1410033 C61.3126567,95.1459745 61.1266353,95.1550129 60.9401602,95.1617918 C60.6933416,95.1712821 60.4465229,95.1807725 60.2010654,95.1934263 C59.9442651,95.2074359 59.6874648,95.2241571 59.4311182,95.2426859 C59.274588,95.253984 59.1180578,95.2643782 58.9615276,95.2765801 C58.6371244,95.3023397 58.3140824,95.3312627 57.9910403,95.3624454 C57.9338727,95.3692242 57.8771589,95.3746473 57.8195376,95.3800704 C44.3910604,96.7453285 32.3028447,103.553542 24.1986632,114.337319 L24.1986632,14.2771385 L24.1982095,14.2771385 Z M9.67946527,130.388254 C9.67946527,127.730045 11.8504712,125.568499 14.5182905,125.568499 L17.8920837,125.568499 C17.682923,126.096797 17.4864663,126.630517 17.2968152,127.166498 C17.2083416,127.413247 17.1203217,127.659545 17.0359315,127.908555 C17.0245887,127.941545 17.0141534,127.974535 17.003718,128.007526 C16.4842192,129.553553 16.0432123,131.134378 15.6816049,132.745482 C15.6802437,132.750453 15.6793363,132.755424 15.6784289,132.761299 C15.5913164,133.150405 15.5091948,133.539962 15.4316102,133.931779 C15.422536,133.976067 15.4143692,134.020808 15.4048413,134.065096 C15.3376921,134.411721 15.2737189,134.759249 15.2138291,135.10723 C15.2079308,135.141124 15.2006715,135.175018 15.1947732,135.209816 L14.5191979,135.209816 C11.850925,135.209816 9.67946527,133.046914 9.67946527,130.388254 L9.67946527,130.388254 Z M62.8375786,181.737506 C41.5322289,181.737506 24.1982095,164.471352 24.1982095,143.248615 C24.1982095,141.945722 24.2653587,140.656387 24.3928514,139.385129 C24.3955736,139.356658 24.3978422,139.327735 24.4005645,139.29836 C24.4595469,138.72487 24.5344091,138.156351 24.6187993,137.590544 C24.6355866,137.478919 24.6519202,137.366391 24.6691612,137.254766 C24.7544589,136.719237 24.8497381,136.186873 24.9568139,135.657671 C24.9831291,135.529325 25.0103517,135.401883 25.0380281,135.273537 C25.1510021,134.742076 25.270328,134.21423 25.4055338,133.692712 C25.4195988,133.637125 25.4354787,133.582443 25.4495437,133.52776 C25.585657,133.011213 25.733113,132.497377 25.8891895,131.989416 C25.9177732,131.898579 25.9440885,131.808647 25.9722185,131.719618 C26.1468972,131.165109 26.3333723,130.616023 26.5325513,130.072812 C26.5438941,130.041177 26.5556906,130.009543 26.567487,129.978812 C31.7729105,115.909106 45.0062922,105.679386 60.7055918,104.823897 C60.8158435,104.818022 60.9260952,104.813954 61.0372543,104.808983 C61.633884,104.780512 62.2341433,104.762887 62.8380323,104.762887 C63.4419213,104.762887 64.0417269,104.780512 64.639264,104.808983 C64.7495157,104.813954 64.8597674,104.818474 64.9700192,104.823897 C80.6584297,105.678482 93.8836445,115.894644 99.0972348,129.948081 C99.115837,129.998245 99.1344391,130.047052 99.1525875,130.097216 C99.3458683,130.624609 99.5264452,131.157426 99.6965867,131.694762 C99.7319762,131.806387 99.765097,131.919819 99.8000328,132.0328 C99.9438591,132.5028 100.079972,132.976414 100.20565,133.453645 C100.235141,133.563462 100.264179,133.673731 100.292763,133.784 C100.414811,134.262134 100.525063,134.744336 100.628055,135.229249 C100.661176,135.381547 100.694297,135.534296 100.724695,135.687498 C100.82678,136.195911 100.918883,136.707035 101.000551,137.222227 C101.02233,137.359612 101.041839,137.496996 101.06271,137.633477 C101.142563,138.176688 101.215157,138.723062 101.272778,139.273504 C101.27913,139.336773 101.28276,139.39959 101.289111,139.462859 C101.411613,140.708358 101.477855,141.970126 101.477855,143.248163 C101.477855,147.415793 100.801372,151.425702 99.565918,155.18615 L80.8725812,155.18615 C83.1629131,151.765548 84.5013598,147.660283 84.5013598,143.248163 C84.5013598,131.351301 74.7828754,121.672475 62.838486,121.672475 C50.8931892,121.672475 41.1756123,131.351753 41.1756123,143.248163 C41.1756123,155.121073 50.852809,164.78363 62.76317,164.823851 C62.7881241,164.824755 62.8130782,164.827919 62.8380323,164.827919 L94.8155664,164.827919 C87.857912,175.0251 76.1204147,181.737506 62.8375786,181.737506 L62.8375786,181.737506 Z M62.8375786,155.184794 C56.2301889,155.184794 50.8541701,149.830416 50.8541701,143.248615 C50.8541701,136.66817 56.2297351,131.314243 62.8375786,131.314243 C69.4454221,131.314243 74.8209871,136.667718 74.8209871,143.248615 C74.8209871,149.830416 69.4449683,155.184794 62.8375786,155.184794 L62.8375786,155.184794 Z M132.973095,181.737506 C122.607619,181.737506 113.913613,174.496802 111.704949,164.828371 L154.242601,164.828371 C152.03303,174.497254 143.339024,181.737506 132.973095,181.737506 L132.973095,181.737506 Z M186.285016,181.737506 C175.919994,181.737506 167.226442,174.496802 165.017324,164.828371 L186.285016,164.828371 C188.95828,164.828371 191.124749,162.669988 191.124749,160.007712 C191.124749,157.345888 188.957826,155.187054 186.285016,155.187054 L165.016417,155.187054 C166.581719,148.331388 171.405572,142.695462 177.778393,139.997032 C177.845089,139.968561 177.913599,139.944609 177.980748,139.916138 C178.218946,139.818071 178.458959,139.722263 178.701694,139.632782 C178.845974,139.579455 178.992069,139.5311 179.136349,139.480936 C179.306037,139.421734 179.474818,139.363436 179.64632,139.308754 C179.819638,139.253167 179.99477,139.2021 180.169449,139.151485 C180.316905,139.1081 180.464361,139.065619 180.613632,139.025398 C180.799199,138.976139 180.985221,138.930495 181.172149,138.885302 C181.315976,138.850504 181.46071,138.817514 181.605443,138.785427 C181.794187,138.743851 181.982477,138.705437 182.172582,138.669735 C182.323214,138.640812 182.475207,138.614149 182.627654,138.587937 C182.810953,138.556755 182.994706,138.527832 183.179366,138.501168 C183.348146,138.476764 183.518288,138.455976 183.688429,138.436091 C183.858117,138.415303 184.027805,138.394514 184.197947,138.378697 C184.403931,138.358813 184.611731,138.344803 184.820438,138.331245 C184.957912,138.321755 185.094479,138.309553 185.232407,138.302774 C185.581311,138.286053 185.932029,138.276111 186.28547,138.276111 C186.63891,138.276111 186.990083,138.285601 187.33944,138.302774 C187.47646,138.309553 187.613027,138.321755 187.749594,138.330341 C187.958755,138.344351 188.167462,138.358813 188.374808,138.378697 C188.544042,138.394514 188.711915,138.415303 188.880695,138.436091 C189.052652,138.455976 189.223701,138.476764 189.394296,138.501168 C189.577141,138.527832 189.759079,138.556755 189.941471,138.587937 C190.095279,138.614601 190.248633,138.64036 190.401534,138.669735 C190.588916,138.705437 190.775845,138.743851 190.961866,138.784524 C191.109776,138.816158 191.256778,138.851408 191.403327,138.886206 C191.587534,138.930495 191.771286,138.975687 191.953678,139.024495 C192.106579,139.066071 192.259026,139.11036 192.410565,139.154648 C192.581614,139.204812 192.751755,139.253619 192.92099,139.306946 C193.097937,139.363436 193.273523,139.424446 193.449109,139.485907 C193.587944,139.534263 193.727687,139.579907 193.865615,139.630975 C194.119693,139.724975 194.371049,139.824849 194.621044,139.92834 C194.67685,139.950936 194.73311,139.972628 194.78937,139.996128 C202.606807,143.30375 208.103966,151.027559 208.103966,160.005905 C208.103059,171.988632 198.316064,181.737506 186.285016,181.737506 L186.285016,181.737506 Z" id="Shape"></path>
                        <path d="M177.367331,106.218078 L177.48212,106.218078 C180.155384,106.218078 182.321853,104.058792 182.321853,101.39742 C182.321853,98.7351437 180.15493,96.5767614 177.48212,96.5767614 L177.367331,96.5767614 C174.694975,96.5767614 172.527598,98.7351437 172.527598,101.39742 C172.527598,104.059244 174.694067,106.218078 177.367331,106.218078 L177.367331,106.218078 Z" id="Shape"></path>
                        <path d="M78.0282684,52.6661548 C79.258732,52.6661548 80.4896493,52.2011265 81.4329139,51.2706179 L81.6692972,51.0383297 C83.5689842,49.1646586 83.5844103,46.1128253 81.7033256,44.2201735 C79.8231482,42.3284256 76.7587857,42.3126083 74.8586451,44.1862793 L74.6222618,44.4185676 C72.7225748,46.2922386 72.7076024,49.3440719 74.5877798,51.2367237 C75.5346741,52.1889246 76.7814713,52.6661548 78.0282684,52.6661548 L78.0282684,52.6661548 Z" id="Shape"></path>
                        <path d="M43.5784644,77.8391469 C43.5861775,77.9114546 43.5993351,77.9815026 43.6093168,78.0529063 C43.6215669,78.1378678 43.6310949,78.2223773 43.6478822,78.305983 C43.663762,78.3859733 43.6859939,78.4650597 43.7064109,78.5441462 C43.7241056,78.6173577 43.7404392,78.691021 43.7631247,78.7633286 C43.7867177,78.8406074 43.8157551,78.9156266 43.8434315,78.9924534 C43.869293,79.064761 43.8933397,79.1375206 43.9228309,79.2080205 C43.9523221,79.2794242 43.9872578,79.3481165 44.019925,79.4181645 C44.054407,79.4904721 44.0870742,79.5641355 44.1256396,79.6355392 C44.1614827,79.7024238 44.2027704,79.7661449 44.2413358,79.8312217 C44.2835309,79.9012697 44.3234575,79.9726735 44.3692823,80.0404619 C44.4178293,80.1118657 44.4704598,80.1787502 44.5217291,80.2478944 C44.5648316,80.3052885 44.6047582,80.3635865 44.6510366,80.4200769 C44.7522141,80.541644 44.8583825,80.6582401 44.9695416,80.7707688 C44.970449,80.7716726 44.9709027,80.7725765 44.9718102,80.7734803 C44.9740787,80.7761919 44.9777084,80.7784515 44.9799769,80.781163 C45.0906824,80.8905283 45.2059249,80.9935666 45.3270657,81.0925377 C45.3819647,81.1377299 45.4404934,81.1774991 45.4972072,81.2199798 C45.5675324,81.271499 45.6351353,81.3257297 45.7072753,81.3731816 C45.7753319,81.4183739 45.8452034,81.4572392 45.9155285,81.4983642 C45.9817703,81.5376814 46.0461972,81.5792583 46.1138001,81.615864 C46.184579,81.6533736 46.2576264,81.6850082 46.3293127,81.7184505 C46.4000916,81.7523447 46.4699631,81.7884985 46.5425568,81.8174215 C46.612882,81.8467965 46.6845683,81.8698445 46.7548934,81.8956041 C46.8329317,81.9231714 46.9096088,81.9529983 46.9890082,81.9774021 C47.0606945,81.9981905 47.1328345,82.0140078 47.2054282,82.0320847 C47.285735,82.0528732 47.3655881,82.0754693 47.4481635,82.0912866 C47.5321,82.1080077 47.6164902,82.11795 47.7013341,82.1297 C47.7721129,82.1396423 47.8433455,82.1532 47.9159393,82.1604308 C48.0742843,82.1753442 48.2335368,82.1839307 48.393243,82.1839307 L96.7896619,82.1839307 C99.4629257,82.1839307 101.629395,80.0255484 101.629395,77.3632725 L101.629395,29.1566898 C101.629395,26.4953176 99.462472,24.3360315 96.7896619,24.3360315 L48.3946041,24.3360315 C45.7213403,24.3360315 43.5548715,26.4953176 43.5548715,29.1566898 L43.5548715,77.3632725 L43.5548715,77.3632725 C43.5544178,77.5228011 43.563492,77.680974 43.5784644,77.8391469 L43.5784644,77.8391469 Z M91.9508367,33.977348 L91.9508367,72.5426142 L60.0781098,72.5426142 L71.3600814,61.3051071 C73.2502405,59.4219456 73.249333,56.3696605 71.3600814,54.4869509 C69.4694687,52.6051453 66.40556,52.6051453 64.5149473,54.4869509 L53.233883,65.7244581 L53.233883,33.977348 L91.9508367,33.977348 L91.9508367,33.977348 L91.9508367,33.977348 Z" id="Shape"></path>
                    </g>
                </g>
            </g>
        </g>
    </g>
</svg>