
<svg width="121px" height="80px" viewBox="0 0 121 80" version="1.1" xmlns="http://www.w3.org/2000/svg" xmlns:xlink="http://www.w3.org/1999/xlink">
    <!-- Generator: Sketch 44.1 (41455) - http://www.bohemiancoding.com/sketch -->
    <desc>Created with Sketch.</desc>
    <defs>
        <rect id="path-1" x="98.5176329" y="53.6980152" width="22.3683526" height="8.37831549" rx="4.18915774"></rect>
    </defs>
    <g id="Page-1" stroke="none" stroke-width="1" fill="none" fill-rule="evenodd">
        <g id="Group-2">
            <g id="Rectangle" transform="translate(109.701809, 57.887173) rotate(9.000000) translate(-109.701809, -57.887173) ">
                <use fill="#D8D8D8" fill-rule="evenodd" xlink:href="#path-1"></use>
                <rect stroke="#000000" stroke-width="2" x="99.5176329" y="54.6980152" width="20.3683526" height="6.37831549" rx="3.18915774"></rect>
            </g>
            <g id="train" transform="translate(48.500000, 40.000000) scale(-1, 1) translate(-48.500000, -40.000000) ">
                <g id="Layer_1">
                    <g id="Group" transform="translate(1.884053, 2.064939)">
                        <rect id="Rectangle-path" fill="#FFE67B" x="65.5656145" y="11.9627525" width="12.0577517" height="12.0136251"></rect>
                        <path d="M65.5661797,23.9763776 L50.366581,23.9763776 L50.366581,3.86556507 C50.366581,1.75876453 48.6368318,0.0354793997 46.5219822,0.0354793997 L9.99867001,0.0354793997 C7.88419718,0.0354793997 6.15463639,1.7585768 6.15463639,3.86556507 L6.15463639,48.0914815 L8.78006444,48.0914815 C11.9490418,42.9092365 17.6741141,39.4491503 24.2095176,39.4491503 C30.7454864,39.4491503 36.4699934,42.9092365 39.638594,48.0914815 L86.5409665,48.0914815 L86.5409665,40.0532387 L86.5409665,32.0148081 L86.5409665,25.7253806 C86.5409665,24.7640578 85.7507946,23.9763776 84.7855942,23.9763776 L77.623743,23.9763776 L65.5661797,23.9763776 L65.5661797,23.9763776 L65.5661797,23.9763776 Z M38.3088293,30.0705746 L18.2120113,30.0705746 L18.2120113,10.0463018 L38.3088293,10.0463018 L38.3088293,30.0705746 L38.3088293,30.0705746 Z" id="Shape" fill="#F9EACD"></path>
                        <rect id="Rectangle-path" fill="#9FDEE2" x="18.2116345" y="10.0464895" width="20.0975717" height="20.0246483"></rect>
                        <path d="M8.78025285,48.0916692 L6.15463639,48.0916692 L4.14491691,48.0916692 C1.93416895,48.0916692 0.12585475,49.8937975 0.12585475,52.0970869 C0.12585475,54.2994378 1.93416895,56.1015661 4.14491691,56.1015661 L6.20418699,56.1015661 C6.41915745,53.1830569 7.33292323,50.4575257 8.78025285,48.0916692 L8.78025285,48.0916692 Z" id="Shape" fill="#7BA9D6"></path>
                        <path d="M24.2095176,64.3996157 C20.3513536,64.3996157 17.223637,61.2832479 17.223637,57.4390831 C17.223637,53.5952938 20.3513536,50.4785505 24.2095176,50.4785505 C28.0674932,50.4785505 31.1950215,53.595106 31.1950215,57.4390831 C31.1950215,61.2834356 28.0674932,64.3996157 24.2095176,64.3996157 L24.2095176,64.3996157 L24.2095176,64.3996157 Z M24.2095176,39.449338 C17.6737373,39.449338 11.9488534,42.9094242 8.78044125,48.0916692 C7.33330004,50.4575257 6.41878064,53.1830569 6.2043754,56.1015661 C6.17102766,56.5430875 6.1550132,56.9887388 6.1550132,57.4383322 C6.1550132,67.3735027 14.2385432,75.4284528 24.2098944,75.4284528 C31.7048462,75.4284528 38.1328587,70.8786422 40.8637938,64.3996157 C41.7660668,62.2584621 42.2647757,59.9061216 42.2647757,57.4381445 C42.2647757,56.9883633 42.2480076,56.5428998 42.2148483,56.1013783 C42.0002546,53.1830569 41.0859236,50.457338 39.6391592,48.0914815 C36.4699934,42.9096119 30.7454864,39.449338 24.2095176,39.449338 L24.2095176,39.449338 Z" id="Shape" fill="#FFA233"></path>
                        <ellipse id="Oval" fill="#FFE67B" cx="24.208764" cy="57.4388954" rx="6.98569223" ry="6.96034487"></ellipse>
                        <path d="M53.3335879,53.3704032 C56.1265083,53.3704032 58.6773278,54.4008075 60.6248735,56.1015661 L68.1804918,56.1008152 C70.1280376,54.401183 72.6794223,53.3704032 75.4717775,53.3704032 C78.2648863,53.3704032 80.8157058,54.4008075 82.7630631,56.1015661 L88.5501208,56.1015661 C90.7608687,56.1015661 92.5695597,54.2994378 92.5695597,52.0961483 C92.5695597,49.8937975 90.7608687,48.0916692 88.5501208,48.0916692 L86.5411549,48.0916692 L39.638594,48.0916692 C41.0853584,50.4575257 41.9996894,53.1830569 42.2142831,56.1015661 L46.042679,56.1015661 C47.9902248,54.4009953 50.5412327,53.3704032 53.3335879,53.3704032 L53.3335879,53.3704032 Z" id="Shape" fill="#7BA9D6"></path>
                        <g transform="translate(42.202790, 53.312960)" id="Shape" fill="#FFA233">
                            <path d="M18.4218948,2.78860572 C16.4743491,1.08803492 13.9237179,0.0574428376 11.1306091,0.0574428376 C8.33806558,0.0574428376 5.78686922,1.0878472 3.84007711,2.78860572 C1.52382218,4.80980518 0.0616085377,7.77787284 0.0616085377,11.0860922 C0.0616085377,17.1780365 5.01742192,22.1156802 11.1307975,22.1156802 C17.2443616,22.1156802 22.1999866,17.1780365 22.1999866,11.0860922 C22.1999866,7.77806056 20.7377729,4.80980518 18.4218948,2.78860572 L18.4218948,2.78860572 Z"></path>
                            <path d="M25.9777015,2.78785484 C23.6622002,4.8099929 22.1999866,7.77806056 22.1999866,11.0859045 C22.1999866,17.1778488 27.1556115,22.1154925 33.2689872,22.1154925 C39.382928,22.1154925 44.3383646,17.1778488 44.3383646,11.0859045 C44.3383646,7.77787284 42.8763393,4.80980518 40.5602728,2.788418 C38.6131039,1.0878472 36.0620959,0.0572551159 33.2689872,0.0572551159 C30.4764436,0.0574428376 27.9250588,1.08803492 25.9777015,2.78785484 L25.9777015,2.78785484 Z"></path>
                        </g>
                    </g>
                    <g id="Group" fill="#000003">
                        <path d="M96.4635208,54.1612747 C96.4635208,50.8489254 93.7591509,48.1547437 90.4351159,48.1541805 L90.4351159,27.7903192 C90.4351159,25.7218139 88.7460623,24.0388889 86.6700241,24.0388889 L81.5180808,24.0388889 L81.5180808,15.9546543 C82.3655279,15.7196267 82.9880191,14.9467765 82.9880191,14.0276911 C82.9880191,12.9216349 82.0881953,12.0252638 80.9782996,12.0252638 L79.5083613,12.0252638 L67.4506097,12.0252638 L65.9808598,12.0252638 C64.8707757,12.0252638 63.9711403,12.9218226 63.9711403,14.0276911 C63.9711403,14.9467765 64.5936315,15.7196267 65.4408902,15.9546543 L65.4408902,24.0388889 L54.2607304,24.0388889 L54.2607304,5.93050367 C54.2607304,2.71445566 51.6343604,0.0979907229 48.4062237,0.0979907229 L11.8827232,0.0979907229 C8.65477491,0.0979907229 6.02897005,2.71445566 6.02897005,5.93050367 L6.02897005,48.1539928 C2.70455828,48.1541805 0,50.8489254 0,54.1620256 C0,57.4743748 2.70455828,60.1691197 6.02897005,60.1691197 L6.04102799,60.1691197 C6.39466476,70.8859633 15.2532942,79.4961941 26.0933824,79.4961941 C33.0579732,79.4961941 39.2043198,75.9414962 42.8036149,70.5578258 C44.530538,75.7438252 49.4407573,79.4961941 55.217641,79.4961941 C59.8752088,79.4961941 63.9692563,77.0559999 66.2870184,73.3933619 C68.6045922,77.0559999 72.6984513,79.4961941 77.3558306,79.4961941 C84.5677977,79.4961941 90.4353043,73.6499775 90.4353043,66.4641789 C90.4353043,64.1824217 89.8418276,62.0365751 88.8029607,60.1693074 L90.4341739,60.1693074 C93.7589625,60.168932 96.4635208,57.4743748 96.4635208,54.1612747 L96.4635208,54.1612747 Z M92.4440818,54.1620256 C92.4440818,55.2658291 91.5427508,56.1640774 90.4343623,56.1640774 L85.3677666,56.1640774 C84.4803776,55.4779546 83.5121627,54.9149773 82.4906291,54.4804015 C82.4393828,54.4586258 82.387383,54.4377887 82.3357599,54.4167639 C82.2095283,54.364765 82.08292,54.3146433 81.9553696,54.266962 C81.8809495,54.2391792 81.8067178,54.212335 81.7317325,54.1856785 C81.6245298,54.1477587 81.5171388,54.1113407 81.4088058,54.0766122 C81.3227045,54.0484539 81.2369801,54.0202957 81.1501253,53.9942024 C81.04914,53.9637914 80.9477779,53.9360086 80.8462275,53.9080381 C80.7550393,53.8826957 80.6644164,53.8560392 80.5722862,53.8329494 C80.395562,53.7882717 80.2177074,53.7471606 80.0392875,53.709804 C79.9456501,53.6906564 79.8506938,53.6745123 79.7564911,53.6568665 C79.6534334,53.6377189 79.5505641,53.6181958 79.4469412,53.6013009 C79.3531154,53.5864708 79.2589127,53.573518 79.1647101,53.5605653 C79.0552466,53.5453598 78.9450295,53.5309052 78.8346239,53.5183279 C78.7470155,53.5085663 78.6592186,53.4991803 78.5712333,53.4912959 C78.4431177,53.479094 78.3153789,53.4702711 78.1868865,53.4620114 C78.1143504,53.4573183 78.041626,53.4518744 77.9687131,53.4483077 C77.7648586,53.4389216 77.5611924,53.4331022 77.3563959,53.4331022 C77.1517877,53.4331022 76.9477447,53.4389216 76.7444554,53.4483077 C76.6711657,53.4518744 76.5986297,53.4573183 76.5257168,53.4620114 C76.3974128,53.4702711 76.2698624,53.4792818 76.142312,53.4912959 C76.0539499,53.4991803 75.9655878,53.5085663 75.8777909,53.5187033 C75.7679507,53.5307175 75.6584872,53.5453598 75.5492121,53.5601898 C75.4546326,53.5733303 75.3596763,53.5864708 75.2654737,53.6016763 C75.163358,53.6180081 75.0616191,53.6373434 74.9604455,53.6559279 C74.8643588,53.6739492 74.7682721,53.6899055 74.6733158,53.7099917 C74.4952728,53.7471606 74.3181718,53.7878962 74.1423896,53.8323863 C74.0478101,53.8562269 73.9543611,53.8836343 73.8605353,53.9095399 C73.7619993,53.9369472 73.6636517,53.9637914 73.5656809,53.9932638 C73.4765652,54.0202957 73.3885799,54.0492048 73.3004063,54.0777385 C73.1948993,54.1120916 73.0897691,54.1473833 72.9852042,54.1845522 C72.907958,54.2115841 72.831277,54.2395546 72.7549729,54.268276 C72.6306254,54.3146433 72.5072199,54.3642018 72.3840028,54.4143235 C72.3293653,54.4370378 72.2745393,54.4590013 72.2200902,54.482091 C71.1994986,54.9166668 70.2326025,55.4792687 69.3459671,56.1646406 L63.2307074,56.1646406 C62.3433184,55.4790809 61.3756687,54.9159159 60.3541351,54.4813401 C60.3019468,54.459189 60.2491933,54.4379764 60.1968167,54.4163884 C60.0715271,54.3651404 59.9456724,54.3150187 59.8186872,54.2677129 C59.7438903,54.2395546 59.6687166,54.2121472 59.593166,54.1856785 C59.4869054,54.1479464 59.3798912,54.1122793 59.2725002,54.0773631 C59.1858337,54.0492048 59.0991673,54.0206711 59.0117472,53.9940146 C58.9118924,53.9639792 58.8110956,53.9365718 58.7104871,53.908789 C58.6187338,53.8834466 58.5271688,53.8564146 58.4340965,53.8329494 C58.2577492,53.7882717 58.0802714,53.7477238 57.9018515,53.7105549 C57.8076489,53.6904687 57.7125042,53.6745123 57.6177363,53.6568665 C57.5150554,53.6377189 57.4125629,53.6185713 57.3095052,53.6022395 C57.2158678,53.587034 57.1210999,53.5740812 57.0270857,53.5611284 C56.9174338,53.545923 56.8075935,53.5314684 56.6973764,53.5192665 C56.6097679,53.5091295 56.5217826,53.4995557 56.4334205,53.4918591 C56.3058701,53.4796572 56.1777545,53.4708343 56.0496389,53.4625745 C55.9769144,53.4578815 55.9043784,53.4524376 55.8310887,53.4488708 C55.6274226,53.4394848 55.4237564,53.4336654 55.2189599,53.4336654 C55.0141633,53.4336654 54.8103087,53.4394848 54.606831,53.4488708 C54.5339181,53.4524376 54.4611937,53.4578815 54.3880924,53.4625745 C54.2599768,53.4708343 54.132238,53.4798449 54.0046876,53.4918591 C53.9163255,53.4997434 53.8281518,53.5091295 53.740355,53.5192665 C53.6301378,53.5312807 53.5206744,53.545923 53.4112109,53.560753 C53.3168198,53.5738935 53.2220519,53.587034 53.1282261,53.6022395 C53.0257336,53.6185713 52.9236179,53.6379066 52.8215022,53.6568665 C52.7261692,53.6745123 52.6304593,53.6904687 52.5356914,53.7105549 C52.3576484,53.7477238 52.180359,53.7884594 52.0042,53.8329494 C51.9101857,53.8567901 51.8176787,53.883822 51.7246065,53.9097276 C51.6251285,53.937135 51.5258389,53.9643546 51.4267377,53.9942024 C51.338564,54.0208588 51.2511439,54.0492048 51.1633471,54.0779262 C51.0574633,54.1128425 50.9513911,54.1479464 50.8462609,54.1851153 C50.7697684,54.2125227 50.6934642,54.2401178 50.6173485,54.2684638 C50.4920589,54.3153942 50.3680882,54.364765 50.2444944,54.4154498 C50.1902336,54.437601 50.1361613,54.4593767 50.0822774,54.4819033 C49.0614974,54.916479 48.0942245,55.4796441 47.2075891,56.1648283 L45.8783896,56.1648283 C45.8772592,56.158258 45.8759403,56.1520632 45.8748099,56.1451175 C45.6730278,54.9632217 45.3678112,53.815679 44.9668847,52.713565 C44.9578412,52.688598 44.9495514,52.6634433 44.940508,52.6388517 C44.9373051,52.6302166 44.9339138,52.6219568 44.9307109,52.6138848 C44.8751313,52.4616425 44.8174793,52.3103388 44.7581316,52.159786 L88.4263385,52.159786 L90.4353043,52.159786 C91.542374,52.1592228 92.4440818,53.0570957 92.4440818,54.1620256 L92.4440818,54.1620256 Z M51.6854182,58.1522378 C51.7121718,58.1407868 51.7396789,58.1308376 51.7668093,58.119762 C51.8666641,58.0782755 51.9672725,58.0384785 52.068823,58.0007464 C52.1281707,57.9789707 52.188272,57.958509 52.2483733,57.9380474 C52.3190253,57.9134558 52.3896773,57.8888643 52.4614597,57.86615 C52.5332421,57.8430602 52.6054013,57.8222231 52.6775606,57.8011983 C52.7391691,57.783177 52.8007777,57.7651557 52.8633282,57.7482607 C52.9401976,57.7277991 53.0172554,57.7088392 53.0945015,57.690067 C53.1546028,57.6756124 53.2147041,57.6619088 53.2749938,57.6485805 C53.353182,57.6313101 53.4311818,57.6153538 53.5097469,57.6005238 C53.5726742,57.5885096 53.6359784,57.577434 53.6992826,57.5665461 C53.7753983,57.5535933 53.8515141,57.5415792 53.9278182,57.5305036 C53.9980934,57.5203666 54.0691222,57.5117314 54.1397742,57.5034717 C54.2100494,57.4948365 54.2803246,57.4862013 54.3509766,57.479631 C54.436701,57.4713712 54.523179,57.4655519 54.6096571,57.4599202 C54.6665555,57.4559781 54.7234539,57.4509096 54.7805407,57.4480938 C54.9256128,57.4411481 55.0714385,57.4370182 55.2180178,57.4370182 C55.3645972,57.4370182 55.5106113,57.4409603 55.655495,57.4480938 C55.7123934,57.4509096 55.7691034,57.4559781 55.8260018,57.4599202 C55.9128566,57.4653642 55.9995231,57.4713712 56.0854359,57.479631 C56.1557111,57.4862013 56.2257979,57.4948365 56.2958846,57.5034717 C56.3669134,57.5117314 56.4379422,57.5203666 56.5087826,57.5305036 C56.5848984,57.5415792 56.6606373,57.5535933 56.7365647,57.5665461 C56.8000573,57.5776217 56.8637383,57.5883219 56.9270424,57.6005238 C57.0052306,57.6153538 57.083042,57.6313101 57.1602882,57.6482051 C57.2215199,57.6613456 57.2821865,57.6759879 57.342853,57.6904425 C57.4195339,57.7088392 57.4960265,57.7276114 57.5721422,57.7482607 C57.6354464,57.7651557 57.6981854,57.7835524 57.7609244,57.8015737 C57.8321416,57.8222231 57.9031704,57.8430602 57.9738224,57.8655868 C58.047112,57.8886766 58.1198365,57.914019 58.1923725,57.938986 C58.250213,57.9594476 58.308807,57.9784075 58.3662706,57.9996201 C58.4714008,58.0386662 58.5752121,58.0801527 58.678835,58.1227655 C58.7025741,58.132527 58.7265016,58.1411622 58.7500523,58.1514869 C61.3973353,59.2719977 63.4012142,61.6136381 64.0512126,64.4617516 L46.3863303,64.4617516 C47.0353866,61.614389 49.0385119,59.2733118 51.6854182,58.1522378 L51.6854182,58.1522378 Z M69.4599523,16.0301184 L77.4982651,16.0301184 L77.4982651,24.0387012 L69.4599523,24.0387012 L69.4599523,16.0301184 L69.4599523,16.0301184 Z M10.048409,5.93050367 C10.048409,4.92262591 10.871175,4.10284529 11.8827232,4.10284529 L48.4060353,4.10284529 C49.4177718,4.10284529 50.2409147,4.92262591 50.2409147,5.93050367 L50.2409147,26.0413162 C50.2409147,27.1468092 51.1407384,28.0437435 52.2506341,28.0437435 L67.4502328,28.0437435 L79.5079845,28.0437435 L86.4153002,28.0437435 L86.4153002,32.0773195 L79.4738832,32.0773195 C78.3636107,32.0773195 77.4641637,32.9738783 77.4641637,34.0797467 C77.4641637,35.1852398 78.3637991,36.082174 79.4738832,36.082174 L86.4154886,36.082174 L86.4154886,40.11575 L79.4738832,40.11575 C78.3636107,40.11575 77.4641637,41.0123088 77.4641637,42.1181773 C77.4641637,43.2236703 78.3637991,44.1206046 79.4738832,44.1206046 L86.4154886,44.1206046 L86.4154886,48.1539928 L42.6144559,48.1539928 C39.256508,43.2918133 34.0222316,40.2126144 28.1752611,39.6188507 C28.158493,39.6171612 28.1421018,39.615284 28.1257105,39.6137822 C27.9960876,39.6010171 27.8662764,39.5895661 27.7362767,39.5794291 C27.6650595,39.5736098 27.5936539,39.5679781 27.5222483,39.5630973 C27.420321,39.5561516 27.3185821,39.5493937 27.2168433,39.5439497 C27.1081334,39.5377549 26.9988583,39.5332496 26.8893948,39.5291197 C26.8144095,39.5263039 26.7394242,39.5225495 26.6644389,39.5204845 C26.4747147,39.515416 26.2844254,39.5118493 26.0937592,39.5118493 C25.9079915,39.5118493 25.7227891,39.5150406 25.5383403,39.5201091 C25.4603405,39.522174 25.3830943,39.5259284 25.3056598,39.5287443 C25.2031673,39.5326864 25.1006748,39.5366286 24.9987475,39.5418848 C24.8921101,39.5477042 24.7854727,39.5546499 24.6790237,39.5623465 C24.6140238,39.5670395 24.549024,39.5713571 24.4840242,39.5764256 C24.3493144,39.5871257 24.2151698,39.5991399 24.0810252,39.6120927 C24.0572861,39.6149085 24.0337355,39.6171612 24.009808,39.6194138 C18.4335759,40.1865211 13.4138931,43.0145484 10.0485974,47.4939634 L10.0485974,5.93050367 L10.048409,5.93050367 Z M4.01943897,54.1612747 C4.01943897,53.0570957 4.9209584,52.1592228 6.02878164,52.1592228 L7.42976356,52.1592228 C7.34290871,52.3786695 7.26132921,52.6003688 7.18257579,52.8230067 C7.14583675,52.9255028 7.10928612,53.0278111 7.07424273,53.1312457 C7.0695326,53.1449494 7.06519928,53.1586531 7.06086595,53.1723568 C6.84514187,53.8145527 6.6620119,54.4712032 6.51185287,55.140431 C6.51128765,55.1424959 6.51091084,55.1445609 6.51053403,55.1470013 C6.47436021,55.3086296 6.44025885,55.4704457 6.40804154,55.6332004 C6.40427343,55.6515972 6.40088214,55.6701816 6.39692563,55.6885783 C6.36904164,55.8325609 6.34247649,55.9769189 6.31760699,56.1214646 C6.31515772,56.1355437 6.31214324,56.1496228 6.30969397,56.1640774 L6.02915845,56.1640774 C4.9211468,56.1640774 4.01943897,55.2656414 4.01943897,54.1612747 L4.01943897,54.1612747 Z M26.0935708,75.4909641 C17.246434,75.4909641 10.048409,68.3188692 10.048409,59.5032708 C10.048409,58.9620692 10.076293,58.4264992 10.1292349,57.8984381 C10.1303653,57.8866116 10.1313074,57.8745974 10.1324378,57.8623955 C10.1569305,57.6241767 10.1880174,57.3880228 10.2230607,57.1529953 C10.2300317,57.106628 10.2368143,57.0598853 10.2439737,57.013518 C10.2793939,56.7910678 10.318959,56.5699317 10.3634227,56.3501096 C10.3743502,56.2967966 10.3856545,56.2438591 10.3971473,56.1905461 C10.4440602,55.9697854 10.4936108,55.7505265 10.5497556,55.5338957 C10.5555961,55.5108059 10.5621903,55.4880916 10.5680309,55.4653773 C10.6245525,55.2508114 10.6857842,55.0373718 10.7505956,54.8263726 C10.7624652,54.7886406 10.7733927,54.7512839 10.7850738,54.7143028 C10.8576098,54.4839683 10.9350444,54.2558864 11.0177544,54.0302449 C11.0224645,54.0171044 11.027363,54.0039639 11.0322616,53.9911988 C13.1938357,48.1468594 18.6890535,43.8975912 25.2082542,43.542234 C25.2540367,43.5397936 25.2998192,43.5381042 25.3459785,43.5360392 C25.5937315,43.5242127 25.8429917,43.5168916 26.0937592,43.5168916 C26.3445267,43.5168916 26.5935985,43.5242127 26.8417283,43.5360392 C26.8875108,43.5381042 26.9332933,43.5399814 26.9790758,43.542234 C33.4937547,43.8972157 38.9855812,48.1408523 41.1505467,53.9784337 C41.1582713,53.9992708 41.1659959,54.0195448 41.1735321,54.0403819 C41.2537928,54.2594531 41.3287781,54.480777 41.3994301,54.7039781 C41.4141257,54.7503453 41.4278793,54.7974635 41.4423865,54.8443939 C41.502111,55.0396245 41.5586326,55.2363568 41.6108208,55.4345909 C41.6230672,55.4802073 41.6351251,55.5260114 41.6469947,55.5718155 C41.6976757,55.770425 41.7434582,55.970724 41.7862262,56.1721494 C41.7999798,56.2354116 41.8137334,56.2988616 41.8263565,56.3624992 C41.8687477,56.5736861 41.906994,56.7859994 41.940907,57.0000021 C41.9499504,57.0570695 41.9580518,57.1141369 41.9667185,57.1708288 C41.9998778,57.3964703 42.0300227,57.6234258 42.0539501,57.8520708 C42.0565878,57.8783519 42.0580951,57.9044452 42.0607327,57.9307262 C42.1116022,58.4480872 42.1391093,58.9722062 42.1391093,59.5030831 C42.1391093,61.2342526 41.858197,62.8999071 41.3451693,64.4619393 L33.582682,64.4619393 C34.533752,63.0410738 35.0895477,61.33581 35.0895477,59.5030831 C35.0895477,54.5613096 31.0539059,50.5408741 26.0939476,50.5408741 C21.1336125,50.5408741 17.0983475,54.5614973 17.0983475,59.5030831 C17.0983475,64.4349074 21.1168444,68.4485849 26.0626723,68.4652921 C26.0730346,68.4656675 26.0833969,68.4669816 26.0937592,68.4669816 L39.3725657,68.4669816 C36.4833702,72.7027338 31.6093247,75.4909641 26.0935708,75.4909641 L26.0935708,75.4909641 Z M26.0935708,64.4613761 C23.3498242,64.4613761 21.1174096,62.2372495 21.1174096,59.5032708 C21.1174096,56.7698553 23.3496358,54.5459164 26.0935708,54.5459164 C28.8375058,54.5459164 31.0697319,56.7696676 31.0697319,59.5032708 C31.0697319,62.2372495 28.8373174,64.4613761 26.0935708,64.4613761 L26.0935708,64.4613761 Z M55.217641,75.4909641 C50.9133332,75.4909641 47.3031106,72.4832872 46.3859535,68.4671693 L64.0498937,68.4671693 C63.1323599,72.4834749 59.5221372,75.4909641 55.217641,75.4909641 L55.217641,75.4909641 Z M77.3556422,75.4909641 C73.0515228,75.4909641 69.4414886,72.4832872 68.5241431,68.4671693 L77.3556422,68.4671693 C78.4657263,68.4671693 79.3653617,67.5706105 79.3653617,66.464742 C79.3653617,65.3590613 78.4655379,64.4623148 77.3556422,64.4623148 L68.5237663,64.4623148 C69.1737647,61.6145767 71.17689,59.2734995 73.823231,58.1526133 C73.8509266,58.1407868 73.8793758,58.1308376 73.9072598,58.1190111 C74.0061726,58.0782755 74.105839,58.0384785 74.2066358,58.0013096 C74.2665487,57.9791584 74.3272152,57.9590722 74.3871281,57.9382351 C74.4575917,57.9136436 74.5276785,57.8894275 74.5988957,57.8667131 C74.6708665,57.8436234 74.743591,57.8224108 74.816127,57.801386 C74.8773587,57.7833647 74.9385905,57.7657189 75.0005758,57.7490116 C75.0776336,57.72855 75.1548798,57.7095901 75.2325027,57.6908179 C75.2922272,57.6763633 75.3523285,57.6626597 75.4124298,57.6493314 C75.4908064,57.632061 75.5689946,57.6161047 75.6479365,57.6012747 C75.710487,57.5892605 75.7736028,57.5781849 75.836907,57.567297 C75.9130227,57.5543442 75.9893269,57.54233 76.0660079,57.5312545 C76.1360946,57.5211175 76.2067466,57.5124823 76.2773986,57.5042225 C76.3478622,57.4955873 76.4183258,57.4869521 76.4889778,57.4803819 C76.5745138,57.4721221 76.6608034,57.4663028 76.7474699,57.4606711 C76.8045567,57.456729 76.8612667,57.4516605 76.9185419,57.4488446 C77.0634256,57.4418989 77.2090629,57.4377691 77.3558306,57.4377691 C77.5025984,57.4377691 77.6484241,57.4417112 77.7934962,57.4488446 C77.8503946,57.4516605 77.9071046,57.456729 77.9638146,57.4602957 C78.0506694,57.466115 78.1373359,57.4721221 78.2234371,57.4803819 C78.2937123,57.4869521 78.3634223,57.4955873 78.433509,57.5042225 C78.5049146,57.5124823 78.5759435,57.5211175 78.6467838,57.5312545 C78.7227112,57.54233 78.7982617,57.5543442 78.8740007,57.567297 C78.9378701,57.5783726 79.0015511,57.5890727 79.0650436,57.6012747 C79.142855,57.6161047 79.220478,57.632061 79.2977242,57.648956 C79.3591443,57.6620965 79.4201877,57.6767388 79.4810426,57.6911933 C79.5575351,57.7095901 79.6338393,57.7283622 79.7095782,57.7486362 C79.7730708,57.7659066 79.836375,57.7843033 79.8993024,57.8027 C79.9703312,57.8235371 80.0409832,57.8438111 80.1112584,57.8659622 C80.1847364,57.8894275 80.2576493,57.9147699 80.3305621,57.9403 C80.3882142,57.9603863 80.446243,57.9793461 80.5035182,58.0005587 C80.6090252,58.0396048 80.7134017,58.0810913 80.8172131,58.1240796 C80.8403869,58.1334657 80.8637492,58.1424763 80.8871114,58.1522378 C84.133335,59.5261729 86.4160538,62.7345243 86.4160538,66.4639912 C86.415677,71.4414318 82.3515859,75.4909641 77.3556422,75.4909641 L77.3556422,75.4909641 Z" id="Shape"></path>
                        <path d="M73.6525358,44.1213554 L73.7002023,44.1213554 C74.8102864,44.1213554 75.7099218,43.2244212 75.7099218,42.1189282 C75.7099218,41.0130597 74.810098,40.1165009 73.7002023,40.1165009 L73.6525358,40.1165009 C72.5428285,40.1165009 71.6428163,41.0130597 71.6428163,42.1189282 C71.6428163,43.2246089 72.5424517,44.1213554 73.6525358,44.1213554 L73.6525358,44.1213554 Z" id="Shape"></path>
                        <path d="M32.4015691,21.8767105 C32.9125243,21.8767105 33.4236679,21.6835448 33.8153626,21.2970259 L33.9135217,21.2005369 C34.7023748,20.4222428 34.7087806,19.1545582 33.9276521,18.3683798 C33.1469005,17.5825768 31.874411,17.5760065 31.0853696,18.3543006 L30.9872104,18.4507896 C30.1983574,19.2290837 30.19214,20.4967683 30.9728916,21.2829468 C31.3660935,21.6784764 31.8838313,21.8767105 32.4015691,21.8767105 L32.4015691,21.8767105 Z" id="Shape"></path>
                        <path d="M18.096142,32.3331841 C18.0993449,32.3632196 18.1048086,32.3923165 18.1089536,32.4219765 C18.1140405,32.4572682 18.117997,32.4923721 18.124968,32.5271006 C18.1315622,32.5603274 18.1407941,32.5931787 18.1492723,32.62603 C18.1566201,32.6564409 18.1634027,32.6870395 18.172823,32.717075 C18.18262,32.7491754 18.194678,32.7803372 18.2061707,32.8122499 C18.2169098,32.8422853 18.2268953,32.8725085 18.2391416,32.9017931 C18.251388,32.9314531 18.2658952,32.9599868 18.2794604,32.9890837 C18.2937792,33.0191192 18.3073444,33.0497178 18.3233588,33.0793778 C18.3382428,33.1071607 18.3553877,33.1336294 18.3714022,33.1606613 C18.3889239,33.1897582 18.4055035,33.2194182 18.4245325,33.2475765 C18.4446918,33.2772365 18.4665469,33.3050193 18.4878367,33.3337407 C18.5057352,33.3575814 18.5223148,33.3817975 18.5415322,33.4052627 C18.5835466,33.4557598 18.6276334,33.504192 18.6737927,33.5509347 C18.6741695,33.5513102 18.6743579,33.5516856 18.6747347,33.5520611 C18.6756768,33.5531874 18.677184,33.554126 18.678126,33.5552523 C18.7240969,33.600681 18.7719519,33.6434815 18.8222561,33.6845926 C18.8450531,33.7033647 18.8693574,33.7198843 18.8929081,33.7375301 C18.9221109,33.7589304 18.9501833,33.781457 18.9801397,33.8011677 C19.0084005,33.8199399 19.037415,33.836084 19.0666178,33.8531667 C19.094125,33.8694984 19.1208785,33.8867688 19.1489509,33.9019743 C19.1783421,33.9175552 19.2086754,33.9306957 19.2384434,33.9445871 C19.2678347,33.9586662 19.2968491,33.973684 19.3269939,33.9856982 C19.3561967,33.9979001 19.3859648,34.0074739 19.4151676,34.018174 C19.4475733,34.029625 19.4794138,34.0420147 19.5123848,34.0521516 C19.5421528,34.0607868 19.5721092,34.0673571 19.6022541,34.074866 C19.6356018,34.0835012 19.6687612,34.0928873 19.7030509,34.0994575 C19.7379059,34.1064032 19.7729493,34.1105331 19.8081811,34.1154139 C19.8375723,34.1195437 19.867152,34.1251754 19.8972968,34.1281789 C19.9630503,34.1343737 20.0291805,34.1379405 20.0954992,34.1379405 L40.1923172,34.1379405 C41.3024013,34.1379405 42.2020367,33.2413817 42.2020367,32.1355132 L42.2020367,12.1112404 C42.2020367,11.0057473 41.3022129,10.1088131 40.1923172,10.1088131 L20.0960644,10.1088131 C18.9859803,10.1088131 18.0863449,11.0057473 18.0863449,12.1112404 L18.0863449,32.1355132 L18.0863449,32.1355132 C18.0861565,32.2017789 18.0899246,32.2674815 18.096142,32.3331841 L18.096142,32.3331841 Z M38.1829746,14.1136676 L38.1829746,30.1330859 L24.9476897,30.1330859 L29.6325762,25.4651983 C30.4174727,24.682962 30.4170959,23.4150897 29.6325762,22.6330412 C28.8474912,21.851368 27.5751902,21.851368 26.7901052,22.6330412 L22.1055955,27.3009287 L22.1055955,14.1136676 L38.1829746,14.1136676 L38.1829746,14.1136676 L38.1829746,14.1136676 Z" id="Shape"></path>
                    </g>
                </g>
            </g>
        </g>
    </g>
</svg>