
<svg width="149px" height="25px" viewBox="0 0 149 25" version="1.1" xmlns="http://www.w3.org/2000/svg" xmlns:xlink="http://www.w3.org/1999/xlink">
    <!-- Generator: Sketch 44.1 (41455) - http://www.bohemiancoding.com/sketch -->
    <desc>Created with Sketch.</desc>
    <defs></defs>
    <g id="Page-1" stroke="none" stroke-width="1" fill="none" fill-rule="evenodd">
        <g id="Group" transform="translate(2.000000, 2.000000)">
            <path d="M3.02083333,9.31854867 C1.359375,9.31854867 0,8.22936766 0,6.89814642 L0,2.42040225 C0,1.08918101 1.359375,0 3.02083333,0 L141.979167,0 C143.640625,0 145,1.08918101 145,2.42040225 L145,6.89814642 C145,8.22936766 143.640625,9.31854867 141.979167,9.31854867 L3.02083333,9.31854867 Z" id="Shape-Copy-21" stroke="#000000" stroke-width="3" fill="#ACB3BA"></path>
            <path d="M3.02083333,9.31854867 C1.359375,9.31854867 0,8.22936766 0,6.89814642 L0,2.42040225 C0,1.08918101 1.359375,0 3.02083333,0 L141.979167,0 C143.640625,0 145,1.08918101 145,2.42040225 L145,6.89814642 C145,8.22936766 143.640625,9.31854867 141.979167,9.31854867 L3.02083333,9.31854867 Z" id="Shape-Copy-22" stroke="#000000" stroke-width="3" fill="#ACB3BA"></path>
            <g id="Group-16" transform="translate(5.000000, 2.000000)">
                <g id="Group-3" transform="translate(61.000000, 0.000000)">
                    <ellipse id="Oval-Copy-64" fill="#000000" cx="8.42338651" cy="10.1656895" rx="8.42338651" ry="10.1656895"></ellipse>
                    <ellipse id="Oval-Copy-63" fill="#ACB3BA" cx="8.21447736" cy="10.2930459" rx="5.21447736" ry="6.29304586"></ellipse>
                    <ellipse id="Oval-Copy-70" fill="#000000" cx="8.42338651" cy="10.1656895" rx="8.42338651" ry="10.1656895"></ellipse>
                    <ellipse id="Oval-Copy-69" fill="#ACB3BA" cx="8.21447736" cy="10.2930459" rx="5.21447736" ry="6.29304586"></ellipse>
                </g>
                <g id="Group-2" transform="translate(121.000000, 0.000000)">
                    <ellipse id="Oval-Copy-62" fill="#000000" cx="8.42338651" cy="10.1656895" rx="8.42338651" ry="10.1656895"></ellipse>
                    <ellipse id="Oval-Copy-61" fill="#ACB3BA" cx="8.21447736" cy="10.2930459" rx="5.21447736" ry="6.29304586"></ellipse>
                    <ellipse id="Oval-Copy-68" fill="#000000" cx="8.42338651" cy="10.1656895" rx="8.42338651" ry="10.1656895"></ellipse>
                    <ellipse id="Oval-Copy-67" fill="#ACB3BA" cx="8.21447736" cy="10.2930459" rx="5.21447736" ry="6.29304586"></ellipse>
                </g>
                <g id="Group-4">
                    <ellipse id="Oval-Copy-60" fill="#000000" cx="8.42338651" cy="10.1656895" rx="8.42338651" ry="10.1656895"></ellipse>
                    <ellipse id="Oval-Copy-59" fill="#ACB3BA" cx="8.21447736" cy="10.2930459" rx="5.21447736" ry="6.29304586"></ellipse>
                    <ellipse id="Oval-Copy-66" fill="#000000" cx="8.42338651" cy="10.1656895" rx="8.42338651" ry="10.1656895"></ellipse>
                    <ellipse id="Oval-Copy-65" fill="#ACB3BA" cx="8.21447736" cy="10.2930459" rx="5.21447736" ry="6.29304586"></ellipse>
                </g>
            </g>
        </g>
    </g>
</svg>